<svg width="25" height="25" viewBox="0 0 25 25" fill="none" xmlns="http://www.w3.org/2000/svg">
<path fill-rule="evenodd" clip-rule="evenodd" d="M21.1732 10.7614C21.6883 10.6506 21.8798 10.7221 21.9217 10.7423C21.9389 10.7782 21.978 10.896 21.9509 11.174C21.9116 11.5777 21.7421 12.1488 21.3961 12.8637C20.7094 14.2829 19.4427 16.0329 17.7378 17.7378C16.0329 19.4427 14.283 20.7094 12.8637 21.3962C12.1488 21.7421 11.5777 21.9115 11.174 21.9509C10.8961 21.978 10.7782 21.9388 10.7423 21.9217C10.7221 21.8798 10.6506 21.6883 10.7614 21.1732C10.8956 20.5493 11.253 19.7094 11.8567 18.7271C12.588 17.5371 13.6334 16.2145 14.924 14.9239C16.2145 13.6334 17.5371 12.5879 18.7271 11.8566C19.7094 11.253 20.5493 10.8956 21.1732 10.7614ZM0.719711 15.203L9.08927 23.5725C9.74353 24.2268 10.631 24.3482 11.4004 24.2732C12.1802 24.1972 13.0297 23.9079 13.88 23.4966C15.5908 22.6687 17.5488 21.2267 19.3877 19.3877C21.2267 17.5488 22.6687 15.5908 23.4965 13.88C23.9079 13.0297 24.1972 12.1802 24.2732 11.4004C24.3482 10.631 24.2268 9.74354 23.5725 9.08927L15.2029 0.719707C14.3935 -0.0897201 13.2407 -0.0888743 12.313 0.110643C11.3342 0.321151 10.2406 0.820227 9.13587 1.49912C7.76982 2.33863 6.30583 3.50318 4.90449 4.9045C3.50317 6.30578 2.33862 7.76983 1.49912 9.13588C0.820231 10.2406 0.321155 11.3342 0.110647 12.313C-0.0888763 13.2407 -0.0897221 14.3935 0.719711 15.203Z" fill="#B31919"/>
</svg>
